<svg xmlns="http://www.w3.org/2000/svg" width="1600" height="900" viewBox="0 0 1600 900" role="img" aria-label="Ocean and boat background">
  <defs>
    <linearGradient id="sky" x1="0" y1="0" x2="0" y2="1">
      <stop offset="0%" stop-color="#38bdf8"/>
      <stop offset="48%" stop-color="#0ea5e9"/>
      <stop offset="100%" stop-color="#075985"/>
    </linearGradient>
    <linearGradient id="sea" x1="0" y1="0" x2="1" y2="1">
      <stop offset="0%" stop-color="#0891b2"/>
      <stop offset="100%" stop-color="#0f766e"/>
    </linearGradient>
  </defs>
  <rect width="1600" height="900" fill="url(#sky)"/>
  <circle cx="1280" cy="160" r="88" fill="#fef3c7" opacity="0.9"/>
  <path d="M0 470 C280 410 420 530 700 470 C960 410 1120 520 1600 450 L1600 900 L0 900 Z" fill="url(#sea)"/>
  <path d="M0 590 C260 540 440 650 760 580 C1040 520 1260 630 1600 570 L1600 900 L0 900 Z" fill="#0c4a6e" opacity="0.34"/>
  <path d="M610 465 h470 c-36 82-102 124-238 124 H694 c-58 0-94-38-84-124z" fill="#f8fafc"/>
  <path d="M670 424 h316 l66 41 H636z" fill="#0284c7"/>
  <rect x="728" y="358" width="250" height="66" rx="10" fill="#e0f2fe"/>
  <path d="M1020 424 h98 l-46 42 h-52z" fill="#082f49"/>
  <text x="850" y="555" text-anchor="middle" font-family="Arial" font-size="38" font-weight="700" fill="#075985">CAPTAIN BLANK</text>
  <path d="M0 745 C230 705 370 785 610 736 C920 676 1120 770 1600 720" stroke="#e0f2fe" stroke-width="6" opacity="0.7" fill="none"/>
</svg>
